/* XPM */
static char *fb53367926604d28f0268392e2616a9djEpKE8E0zDMrshaW[] = {
/* columns rows colors chars-per-pixel */
"64 64 191 2 ",
"   c #7F3516",
".  c #30663E",
"X  c #346F3D",
"o  c #397F34",
"O  c #2B5B46",
"+  c #305E4D",
"@  c #356B44",
"#  c #336B4F",
"$  c #3B6C4F",
"%  c #3C7543",
"&  c #376D51",
"*  c #357352",
"=  c #3B7352",
"-  c #3D7954",
";  c #4A6A4E",
":  c #41754F",
">  c #49784C",
",  c #527B49",
"<  c #457754",
"1  c #437C53",
"2  c #4B7B55",
"3  c #4A7F59",
"4  c #537C55",
"5  c #8C3B1C",
"6  c #99411D",
"7  c #A04623",
"8  c #A24D2B",
"9  c #AC532D",
"0  c #B05834",
"q  c #BB603B",
"w  c #C36843",
"e  c #D07750",
"r  c #3E8932",
"t  c #44972E",
"y  c #458D37",
"u  c #448C3D",
"i  c #489635",
"p  c #45943E",
"a  c #4A923E",
"s  c #46993E",
"d  c #4A9C3F",
"f  c #5E9F3F",
"g  c #4AA727",
"h  c #4FB521",
"j  c #55B525",
"k  c #4BA032",
"l  c #4DA03F",
"z  c #5EA93D",
"x  c #6AB938",
"c  c #6DD21D",
"v  c #70C52F",
"b  c #73C532",
"n  c #3C8348",
"m  c #428945",
"M  c #4A8548",
"N  c #448B4B",
"B  c #4A8F4A",
"V  c #53844B",
"C  c #578848",
"Z  c #4C9442",
"A  c #479A40",
"S  c #4C9E41",
"D  c #4B9349",
"F  c #529741",
"G  c #529D44",
"H  c #5A944E",
"J  c #589849",
"K  c #468154",
"L  c #4B8456",
"P  c #4D8B52",
"I  c #4B8559",
"U  c #4E8959",
"Y  c #558256",
"T  c #588651",
"R  c #528C54",
"E  c #5C8C55",
"W  c #578458",
"Q  c #588759",
"!  c #548D5A",
"~  c #5B8C5A",
"^  c #549253",
"/  c #5B9454",
"(  c #5D9B54",
")  c #57905B",
"_  c #5E945D",
"`  c #5F9A5A",
"'  c #639747",
"]  c #629D4D",
"[  c #609454",
"{  c #649B54",
"}  c #60975E",
"|  c #629A5B",
" . c #4EA141",
".. c #52A542",
"X. c #5CA446",
"o. c #56AA43",
"O. c #5BAF43",
"+. c #54A04B",
"@. c #5CA64C",
"#. c #5DAE49",
"$. c #5CB245",
"%. c #5DB348",
"&. c #64A44A",
"*. c #64AD4A",
"=. c #68A948",
"-. c #6BAB4C",
";. c #72AD4A",
":. c #60B547",
">. c #60B847",
",. c #62B34A",
"<. c #6AB54C",
"1. c #63BB4B",
"2. c #6BBC4E",
"3. c #74B246",
"4. c #65A355",
"5. c #68A454",
"6. c #61AD50",
"7. c #6CAC53",
"8. c #66A05A",
"9. c #6EB253",
"0. c #64BA51",
"q. c #72B256",
"w. c #73BC52",
"e. c #568B66",
"r. c #579866",
"t. c #5A946A",
"y. c #569675",
"u. c #639C63",
"i. c #62946B",
"p. c #639A72",
"a. c #68A06B",
"s. c #61A274",
"d. c #73AB77",
"f. c #65C14C",
"g. c #6BC34E",
"h. c #7CC447",
"j. c #6FC551",
"k. c #6DC555",
"l. c #74C351",
"z. c #7AC553",
"x. c #74CA52",
"c. c #7CCC55",
"v. c #7BC758",
"b. c #77D053",
"n. c #7CD155",
"m. c #6EC660",
"M. c #74CD68",
"N. c #7AD06B",
"B. c #7FD572",
"V. c #83DB28",
"C. c #8BE525",
"Z. c #93EF20",
"A. c #94F120",
"S. c #83AF4E",
"D. c #8AB850",
"F. c #81BF64",
"G. c #80CF41",
"H. c #82CC5B",
"J. c #84D35A",
"K. c #82D558",
"L. c #8AD75A",
"P. c #8BDA5B",
"I. c #95E35F",
"U. c #8ECF65",
"Y. c #95DC65",
"T. c #98DD68",
"R. c #94E260",
"E. c #9AE069",
"W. c #A2EA68",
"Q. c #ACE674",
"!. c #B1EE74",
"~. c #BBF27C",
"^. c #D8C25B",
"/. c #CAD471",
"(. c #61998A",
"). c #61A787",
"_. c #78AC89",
"`. c #61AF99",
"'. c #7BB89B",
"]. c #73B3A5",
"[. c #84A78E",
"{. c #85B58F",
"}. c #83BB99",
"|. c #B5A5A5",
" X c #C8B6B6",
".X c #96C195",
"XX c #AAC18F",
"oX c #BDE699",
"OX c #AAE4C6",
"+X c #DFC9C8",
"@X c #FADCDC",
/* pixels */
"| (.~ /./ | 7._ t.~ Y _ } / } } } ].~ { _ } } } 8.} - t.~ T | 5._ W } | ~ 7.7.} } } } _ _ T } } } 8._ (.~ - 7.'.! ~ T R U u.* - ",
"- ] ;.| / _ Y } H V i.} } ^ } _ | =.' _ _ 4 W } _ } 7.3 -.D.} Y } } 5.4 | } ~ _ _ | p._ &.S.4 Q } _ } ] 3.h.I I _ L *.; + 2 * 3 ",
"~ | | | _ ! K W } } | ~ } } } } } } } } } } } } } } } } } } } } } } } } } } } } } } } } _ } } } } } } } ~ ~ } } Y | 1 L : &.M -.",
"~ 4 4.} ~ R _ ( } } | 4 } } } } _ } } } } } } } } _ } } } } } } } } . } } } } } } } } } } } } } } } _ _ _ 7.} 5.u.OX1 | 1 = , ( ",
"} | _ ~ | | K L } } _ | } } } } } } } } } } } } } } } } } } } } } } _ } ~ } 0 0 0 0 0 0 0 0 0 0 0 0 } _ } E _ 5.~ | L 1 1 ; % = ",
"} } } } } } } } } } } } O.O.O.} } } } Q } } } } } } } } 4 } } } } } } } } } 0 0 0 0 0 0 0 0 0 0 0 0 } } } ~ 4 } W | ~ ; h.9.- < ",
"_ } } } } } } } } } ` O.O.O.O.O.} } } } } } } } } } } } } } } } 0 0 0 0 q q q q w w w w w w w w 0 0 0 0 0 0 0 0 h.} P | ^ [.$ & ",
"} } } } } } } } } } O.O.O.O.O.O.O.@.#.} } } } } ` @.} } } } } ` 0 0 0 0 q q q q w w w w w w w w 0 0 0 0 0 0 0 0 } } R ) - _ * & ",
"} } } } } } } } } #.O.s ..o.o.o.o.O.O.O.} } } O.O.O.#.} } } 0 0 q q q q w w e e e e e e w w w w q q q q 0 0 9 9 9 9 t.u.R I H P ",
"} } } } } } } } O.O.$.O.2.c.S O.c... .O.O.} O.O.O.O.O.#.} O.0 0 q q q q w w e e e e e e w w w w q q q q 0 0 9 9 9 9 4., 4.K 4 > ",
"} } } O.%.O...O.O.O.o.$.o. .O...o...O.O.%.$.O.O.O.O.O.O.0 0 q q q q w w e e e e w w w w w w w w q q q q 0 0 9 9 9 9 8 8 9._ 1 H ",
"} } #.O.d o.f...#.s O. .l.d S  .,.o.O.d ..o.O.O.O.O.O.O.0 0 q q q q w w e e e e w w w w w w w w q q q q 0 0 9 9 9 9 8 8 4.{ $ > ",
"( O.O.O.S d S  .c.S 1.G F c.o.p J.....O.o.o.S O.O.O.0 0 w w w w w w e e w w w w w w q q q q q q q q q q 0 0 9 9 8 8 8 8 < r.K = ",
"O.O.,.c...O.O.o.<.d 2.%.X.L.d Y.,.X.d p O.l ..O.O.O.0 0 w w w w w w e e w w w w w w q q q q q q q q q q 0 0 9 9 8 8 8 8 d.} z.^ ",
"O.O.,.O.d O.$.d  .O J.2.o...%.d  .a O.s c.l $.O.0 0 0 0 w w e e e e w w w w w w q q q q q q q q 0 0 0 0 0 0 8 8 8 8 8 8 ! P 2 ).",
"O.O.0.O.1...O...%.x.a S o.O. . .X. .%.2.1.$.$.O.0 0 0 0 w w e e e e w w w w w w q q q q q q q q 0 0 0 0 0 0 8 8 8 8 8 8 1 - 5.L ",
"O.O.O.O.$.O.O.d z.b.2.Z r C...x... .g p d O.O.O.0 0 q q e e e e w w w w q q q q q q q q q q q q 0 0 0 0 9 9 8 8 7 7 8 8 Y ;.H { ",
"O.O.O.k.O.O.O.d c.I.b o.o.Z 1.P.,.l $.2.$.O.O.O.0 0 q q e e e e w w w w q q q q q q q q q q q q 0 0 0 0 9 9 8 8 7 7 8 8 { C , V ",
"O.O.O.0.O.O.S ..g.F  .H g ..%.d u $.S o.O.O.0 0 q q w w e e w w w w q q q q q q q q q q q q 0 0 0 0 9 9 8 8 8 8 7 7 7 7 } _ 1 - ",
"O.O.O.O.%.O.P.O.o.K.,.a I.g G a X O.C.O.O.O.0 0 q q w w e e w w w w q q q q q q q q q q q q 0 0 0 0 9 9 8 8 8 8 7 7 7 7 _ Y y.I ",
"O.O.O.O.M.O. .,. .d L.S ( v.O.J # n d 1.%.O.0 0 q q e e e e w w q q q q q q q q q q q q 0 0 0 0 9 9 8 8 8 8 7 7 7 7 6 6 oX| / | ",
"O.O.O.O.O.O.O.O...O.K.b.X.d o.U.o.o.O.O.O.O.0 0 q q e e e e w w q q q q q q q q q q q q 0 0 0 0 9 9 8 8 8 8 7 7 7 7 6 6 7.} 1 &.",
"O.O.O.O.O.O.f...#.d E.2.%.W.o.$.,.o.O.O...O.0 0 w w e e w w q q q q q q q q q q q q 0 0 0 0 9 9 8 8 8 8 7 7 7 7 6 6 6 6 ( [ $ V ",
"O.O.O.O.O.O. . .c.S 1.G Z l.o.S %.#.c.o.Z.O.0 0 w w e e w w q q q q q q q q q q q q 0 0 0 0 9 9 8 8 8 8 7 7 7 7 6 6 6 6 < r.K = ",
"O.O.O.O.O.O.O.o.l.s G #.Y.c.1.O.m #...V.D O.q q w w e e w w q q q q q q q q 0 0 0 0 0 0 9 9 8 8 8 8 7 7 7 7 6 6 6 6 8.7.: &.z.R ",
"O.O.O.O.O.O.$.d  .s N #.d ..$.d  .d O.O.o.O.q q w w e e w w q q q q q q q q 0 0 0 0 0 0 9 9 8 8 8 8 7 7 7 7 6 6 6 6 u.~ < < 2 ).",
"O.O.O.O.O.O.O. .$.A 6.% o.O.o.O.#.l O.O.0 0 q q e e w w q q q q q q 0 0 0 0 0 0 9 9 8 8 8 8 8 8 7 7 7 7 6 6 6 6     E E - > 5.K ",
"O.O.O.O.O.O.O.O.1.s k n #.,.O.t u %.O.O.0 0 q q e e w w q q q q q q 0 0 0 0 0 0 9 9 8 8 8 8 8 8 7 7 7 7 6 6 6 6     ~ h.8._ e.XX",
"O.O.O.O.O.O.O.O.$. .l.........N -  .O.O.0 0 w w q q q q q q q q 0 0 0 0 9 9 9 9 9 9 8 8 7 7 7 7 6 6 6 6 6 6     _ } t.1 u._ / ( ",
"O.O.O.O.O.O.O.O.1.d o.1.O...o... .$. .O.0 0 w w q q q q q q q q 0 0 0 0 9 9 9 9 9 9 8 8 7 7 7 7 6 6 6 6 6 6     _ } ! / _ _ ! L ",
"i @ - O.O.O.O.O.o.O.%.d d $.O.#.o.O.$.O.0 0 q q q q q q 0 0 0 0 0 0 9 9 8 8 8 8 8 8 7 7 7 7 6 6 6 6 5 5     } } ~ | ~ _ p.{ = -.",
"X O.G O.O.O.O.O.1.S o.O.2.c.O.o.l...O.O.0 0 q q q q q q 0 0 0 0 0 0 9 9 8 8 8 8 8 8 7 7 7 7 6 6 6 6 5 5     } _ ~ | }._ &.J T K ",
"G O.O.O.O.O.O.O.O.O.O.O... .O.o.o.O.O.O.0 0 q q 0 0 0 0 0 0 9 9 9 9 8 8 8 8 7 7 7 7 7 7 6 6 6 6 5 5     O.} } } } } } ~ } } ! ) ",
"O.O.j O.O.O.O.O.O.O.O.O.O.d S  .,.O.O.O.0 0 q q 0 0 0 0 0 0 9 9 9 9 8 8 8 8 7 7 7 7 7 7 6 6 6 6 5 5     O.} } } } _ _ Q 4 _ ^.K ",
"O.o...O.O.O.O.O.O.O.O.O.O.O.S O.O.O.0 0 q q 0 0 0 0 9 9 9 9 8 8 8 8 7 7 7 7 7 7 6 6 6 6 5 5 5 5 O.O.O.O.O.} } } ~ } [ V ~ } | ! ",
"O.O.O.O.O.O.O.O.O.O.O.O.O.O.O.O.O.O.0 0 q q 0 0 0 0 9 9 9 9 8 8 8 8 7 7 7 7 7 7 6 6 6 6 5 5 5 5 O.O.O.O.O.} } } ~ | ~ } {.u.v D ",
"O.O.O.O.O.O.O.O.O.O.O.O.O.O.O.O.O.O.0 0 0 0 0 0 9 9 8 8 8 8 7 7 7 7 6 6 6 6 6 6 6 6 5 5 O.O.O.O.O.O.O.O.O.} } } | } / _ _ P 2 `.",
"O.O.O.O.O.O.O.O.O.O.O.O.O.O.O.O.O.O.0 0 0 0 0 0 9 9 8 8 8 8 7 7 7 7 6 6 6 6 6 6 6 6 5 5 O.O.O.O.O.O.O.O.O.} } ~ ~ } | | - L c = ",
"O.#.O.O.O.O.O.O.O.O.O.O.O.O.O.O.0 0 0 0 9 9 9 9 7 7 7 7 6 6 6 6 6 6 5 5 5 5      . .>.O.O.O.O.O.O.O.} } } } } } } } _ } | _ { L ",
"O.O.O.O.O.O.O.O.O.O.O.O.O.O.O.O.0 0 0 0 9 9 9 9 7 7 7 7 6 6 6 6 6 6 5 5 5 5     O.....O.O.O.O.O.O.} } } } } } } _ } _ Y a.} 1 '.",
"O.O.O.O.O.O.O.O.O.O.O.O.O.O.O.O.0 0 9 9 9 9 7 7 6 6 6 6 6 6         d #.1.O.d O... .%. .O.O.#.#.#.} } } } } } } } } } } _ _ / L ",
"O.O.O.O.O.O.O.O.O.O.O.O.O.O.O.O.0 0 9 9 9 9 7 7 6 6 6 6 6 6         o.%.M d o.o.o...o...O.` } } } } _ } } } } } } } ~ _ ).{ '.K ",
"O.O.O.O.O.O.O.O.O.O.O.O.O.O.O.O.+X+X8 8 6 6 6 6 6 6     O.S s d o.#. .o G 1.2.*...x.#.,.@.} } } } Y } } } } } } 4 } _.} &.J / } ",
"O.O.O.O.O.O.O.O.O.O.O.O.O.O.O.O.+X+X8 8 6 6 6 6 6 6     O.f.1. .$... .1.1.u o.$.o.o.%.o._ } } } } } } } } B } } } } | E } } G.| ",
"x.O.O.O.O.O.O.O.O.O.O.O.O.O.@X@X+X+X7 7 6 6     O.O.O.O.O...$.%...*.w.J.J.#.d  . .#...O.O.} } } } } } } _ } / } } } _ Q 4 } - R ",
"2.O.O.O.O.O.O.O.O.O.O.O.O.O.@X@X+X+X7 7 6 6     O.O.1.$.O... ...S d n.j.G #.%.S  .%.d O.O.O.} } } } } } _ x h ~ ~ } / V / _ -.K ",
"2.O.O.O.O.O.O.O.O.O.O.O.@X@X+X+X|.|.6 6 O.O.O.O.O.O.o.1.1.S O.....1.2.s ..n A.%.o.o.0.O.O.O.O.O.O._ } } } } z } } } ~ _ .Xa.f 5.",
"o.O.O.O.O.O.O.O.O.O.O.O.@X@X+X+X|.|.6 6 O.O.O.O.O.O...o.o.S O.$.d  .d ..S o.B O.d ..,.M.O.O.O.O.O.O.} } } R } } } } E _ } P ' / ",
"%.O.O.O.O.O.O.O.O.O.@X@X+X+X|.|.O.O.O.O.O.O.O.O.O.O.d d d O.o.a S #.d l.o.%.O.o.O.O.%.O.O.O.O.O.O.O.#.} } } h } } } | } - U % = ",
"#.O.D O.O.O.O.O.%. .@X@X+X+X|.|.O.O.O.O.O.O.O.O.d $...j.#.s s *.U.%. .o. .O.O.O.O.O.O.O.O.O.O.O.O.O.O.@.} } } } Y } I w.W 5.1 [.",
"o.N O.O.O.m.@X@X@X@X+X+X|.|.O.O.O.O.O.O.O.O.O.O.1.S s %.d ..d 2.o.%. .2.$.O.O.O.O.O.O.O.O.O.O.O.O.O.O.O.#.} } ~ } } L L ] C ( 4.",
"..O.o.O.O.O.@X@X@X@X+X+X|.|.O.O.O.O.O.O.O.O.O.O.O... .$.:. .O.o.d 1. .O.O.O.O.O.O.O.O.O.O.O.O.O.O.O.O.O.O.} } } } } ! / } _ ! L ",
" .O.$.O.@X@X@X@X@X@X+X+Xp o.o.#.l o.O.O.O.O.O.O.s d $.#.%.c.p l.O.d O.O.O.O.O.O.O.O.O.O.O.O.O.O.O.O.O.O.O.} } } } } ~ / Q M H K ",
"..O.$.O.@X@X@X@X@X@X+X+X%.2.S ..1.#.2.O.$.O.O.O...s  .d b.n.s d ..,.O.O.O.O.O.O.O.O.O.O.O.O.O.O.O.O.O.O.O.} } } 4 _ _ J X ^ 2 - ",
"#...o.2.|.|. X X+X+X|.|.#.d $.o.o.%.....1.#.%.>.O.,.b.S *.S >...o.O.O.O.O.O.O.O.O.O.O.O.O.O.O.O.O.O.O.O.O.} } } } } _ _ 4._ > 3.",
"l.>.o.c.|.|. X X+X+X|.|...d .. .#...O.l H...d $.x.c.T.L.<.R.$.%...O.N.O.O.O.O.O.O.O.O.O.O.O.O.O.O.O.O.O.O.} } } } _ 4.} 3 t.$ H ",
"2...S o.o...|.|.|.|.|.|.u X.S  .%...1.....O.o.d s c.%.z.F 1...o.o.O.$.O.O.O.O.O.O.O.O.O.O.O.O.O.O.O.O.O.O.} } ~ _ } | } | - 1 = ",
"1.p 2.g. .s |.|.|.|.|.|.%.<.d b.l.o.2.p p n +.p n.l.%...c.a O.....O.O.O.O.O.O.O.O.O.O.O.O.O.O.O.O.O.O.O.O.} } } ~ 4.7.7.| _ q.P ",
"o...o.$.s %.*.$.S #...S #.G $.#.o.S X.2.I.$.X.%.#.^ a c...S O.$.o.O.O.O.O.O.O.O.O.O.O.O.O.O.O.O.O.O.O.O.O.} } } -.} s.T | } Y `.",
"*.d  ...W.o.1.p I.J.2.$.2.d .. .a #.g.d a y p ..n.&.o. .l O.o.o...O.O.O.O.O.O.O.O.O.O.O.O.O.O.O.O.O.O.O.O.} } } _ | ~ | _ _ 5.1 ",
"H.O O l.$.d G Q.. g O.p P.d w.c.& ..^ d  .2.@ F.t h L.1.O.s ..d O.O.O.O.O.O.O.O.O.O.O.O.O.O.@ Z S O.O.O.#.} } } } } _ } Q { / ( ",
"b.a 2.c.p G ,...r h ,...c.p $.n.o.G ..,. .*.m %.O @ a 2.s ..d o.O.O.O.O.O.O.O.O.O.O.O.O.O.O.O.....O.O.O.O.} } } ~ } _ ~ ] C T , ",
"a ..#.#.d O.$.d 1.a #.I.S o.O. .p S a #.I.d 1.o.%.a  .o... .O.#.O.O.O.O.O.O.O.O.O.O.O.O.O.O.u O.O.O.O.O.O.} } } } } } } 8._ L K ",
"x.G a %.R.s Q.q.o.N ....j.!.d #.Y.G m S o.$.~.a ..x.G a .. .O.O.B.O.O.O.O.O.O.O.O.O.O.O.O.O.O.O.O.O.O.O.} } } } } } | } L K ^ 1 "
};
