/* XPM */
static char *db2a9f417de0400df5bbde504c36cbc4oaTL3ju9d52TV7al[] = {
/* columns rows colors chars-per-pixel */
"64 64 148 2 ",
"   c black",
".  c #0D1014",
"X  c #211006",
"o  c #26190B",
"O  c #351A0A",
"+  c #362B15",
"@  c #1B2128",
"#  c #20252B",
"$  c #342920",
"%  c #42210D",
"&  c #4A230E",
"*  c #42280F",
"=  c #452711",
"-  c #472912",
";  c #512611",
":  c #5E2D12",
">  c #423011",
",  c #4C3217",
"<  c #4A3418",
"1  c #503C1B",
"2  c #5E3E1D",
"3  c #6B3415",
"4  c #663F1B",
"5  c #633C1C",
"6  c #503221",
"7  c #553A26",
"8  c #284719",
"9  c #4E451D",
"0  c #53421A",
"q  c #54401F",
"w  c #5D471C",
"e  c #68411C",
"r  c #72461E",
"t  c #75451F",
"y  c #594423",
"u  c #5C4421",
"i  c #5A4026",
"p  c #574B20",
"a  c #5F482B",
"s  c #5A5423",
"d  c #614620",
"f  c #6C4520",
"g  c #654F23",
"h  c #654A24",
"j  c #614D2D",
"k  c #734720",
"l  c #7C4B20",
"z  c #7F4D21",
"x  c #685227",
"c  c #6C562B",
"v  c #765023",
"b  c #7E5025",
"n  c #7A5827",
"m  c #7D5C2B",
"M  c #6F5A35",
"N  c #705C36",
"B  c #79563A",
"V  c #735F3F",
"C  c #406238",
"Z  c #696025",
"A  c #647D2F",
"S  c #3B4754",
"D  c #404B57",
"F  c #414D5B",
"G  c #46515E",
"H  c #436942",
"J  c #4E734C",
"K  c #556351",
"L  c #5B6958",
"P  c #587E56",
"I  c #627C51",
"U  c #4C5865",
"Y  c #505C68",
"T  c #56626F",
"R  c #667462",
"E  c #707E6D",
"W  c #616D7A",
"Q  c #824C22",
"!  c #835125",
"~  c #805426",
"^  c #895223",
"/  c #8F5325",
"(  c #8D5627",
")  c #845D29",
"_  c #825D2D",
"`  c #8D5D2B",
"'  c #865E3C",
"]  c #846023",
"[  c #8E622F",
"{  c #91652E",
"}  c #99642F",
"|  c #836030",
" . c #826638",
".. c #946E32",
"X. c #977635",
"o. c #A56F32",
"O. c #A87736",
"+. c #A97639",
"@. c #AF7839",
"#. c #B27635",
"$. c #B67A39",
"%. c #B57E38",
"&. c #BD7C3A",
"*. c #977A4B",
"=. c #867458",
"-. c #8C7B5F",
";. c #508F33",
":. c #788634",
">. c #649837",
",. c #78A13C",
"<. c #688F49",
"1. c #AC8039",
"2. c #A9813E",
"3. c #B4803E",
"4. c #B9823C",
"5. c #B8873C",
"6. c #C0843D",
"7. c #9F8150",
"8. c #BD8640",
"9. c #B98843",
"0. c #B58F50",
"q. c #BA9250",
"w. c #BF9654",
"e. c #8CAA41",
"r. c #958469",
"t. c #99886D",
"y. c #A08F74",
"u. c #A49073",
"i. c #C48841",
"p. c #C38D40",
"a. c #C08E44",
"s. c #C69543",
"d. c #C79044",
"f. c #CA9947",
"g. c #CA9E47",
"h. c #C59749",
"j. c #C39B5A",
"k. c #C79F5E",
"l. c #CDA14B",
"z. c #CCA362",
"x. c #CDA667",
"c. c #D0AA6A",
"v. c #D4AC6C",
"b. c #D9B070",
"n. c #E6BE7E",
"m. c #6F3198",
"M. c #B19D81",
"N. c #BEAB8F",
/* pixels */
"m.m.m.m.m.m.m.m.m.m.m.m.m.m.m.m.m.m.m.m.m.m.m.m.m.m.m.m.m.m.m.m.m.m.m.m.m.m.m.m.m.m.m.m.m.m.m.m.m.m.m.m.m.m.m.m.m.m.m.m.m.m.m.m.",
"m.m.m.m.m.m.m.m.m.m.m.m.m.m.m.m.m.m.m.m.m.m.m.m.m.m.m.m.m.m.m.m.m.m.m.m.m.m.m.m.m.m.m.m.m.m.m.m.m.m.m.m.m.m.m.m.m.m.m.m.m.m.m.m.",
"m.m.m.m.m.m.m.m.m.m.m.m.m.m.m.m.m.m.m.m.m.m.m.m.m.m.m.m.m.m.m.m.m.m.m.m.m.m.m.m.m.m.m.m.m.m.m.m.m.m.m.m.m.m.m.m.m.m.m.m.m.m.m.m.",
"m.m.m.m.m.m.m.m.m.m.m.m.m.m.m.m.m.m.m.m.m.m.m.m.m.m.m.m.m.m.m.m.m.m.m.m.m.m.m.m.m.m.m.m.m.m.m.m.m.m.m.m.m.m.m.m.m.m.m.m.m.m.m.m.",
"m.m.m.m.m.m.m.m.m.m.m.m.m.m.m.m.m.m.m.m.m.m.m.m.m.m.m.m.m.m.m.m.m.m.m.m.m.m.m.m.m.m.m.m.m.m.m.m.m.m.m.m.m.m.m.m.m.m.m.m.m.m.m.m.",
"m.m.m.m.m.m.m.m.m.m.m.m.m.m.m.m.m.m.m.m.m.m.m.m.m.m.m.m.m.m.m.m.m.m.m.m.m.m.m.m.m.m.m.m.m.m.m.m.m.m.m.m.m.m.m.m.m.m.m.m.m.m.m.m.",
"m.m.m.m.m.m.m.m.m.m.m.m.m.m.m.m.m.m.m.m.m.m.m.m.m.m.m.m.m.m.m.m.m.m.m.m.m.m.m.m.m.m.m.m.m.m.m.m.m.m.m.m.m.m.m.m.m.m.m.m.m.m.m.m.",
"m.m.m.m.m.m.m.m.m.m.m.m.m.m.m.m.m.m.m.m.m.m.m.m.m.m.m.m.m.m.m.m.m.m.m.m.m.m.m.m.m.m.m.m.m.m.m.m.m.m.m.m.m.m.m.m.m.m.m.m.m.m.m.m.",
"m.m.m.m.m.m.m.m.m.m.m.m.m.m.m.m.m.m.m.m.m.m.m.m.m.m.m.m.m.m.m.:.:.m.m.m.m.m.m.m.m.m.m.m.m.m.m.m.m.m.m.m.m.m.m.m.m.m.m.m.m.m.m.m.",
"m.m.m.m.m.m.m.m.m.m.m.m.m.m.m.m.m.m.m.m.m.m.m.m.m.m.m.m.m.m.:.c c :.m.m.m.m.m.m.m.m.m.m.m.m.m.m.m.m.m.m.m.m.m.m.m.m.m.m.m.m.m.m.",
"m.m.m.m.m.m.m.m.m.m.m.m.m.m.m.m.m.m.m.m.m.m.m.m.m.m.m.m.:.p { c c { p :.m.m.m.m.m.m.m.m.m.m.m.m.m.m.m.m.m.m.m.m.m.m.m.m.m.m.m.m.",
"m.m.m.m.m.m.m.m.m.m.m.m.m.m.m.m.m.m.m.m.m.m.m.m.m.m.:.s ..f.$.c c $.f...s :.m.m.m.m.m.m.m.m.m.m.m.m.m.m.m.m.m.m.m.m.m.m.m.m.m.m.",
"m.m.m.m.m.m.m.m.m.m.m.m.m.m.m.m.m.m.m.m.m.m.m.m.:.s X.l.a.( e c c e ( a.l.X.s :.m.m.m.m.m.m.m.m.m.m.m.m.m.m.m.m.m.m.m.m.m.m.m.m.",
"m.m.m.m.m.m.m.m.m.m.m.m.m.m.m.m.m.m.m.m.m.m.:.s X.l.a.( l O.p.c c p.O.l ( a.l.X.s :.m.m.m.m.m.m.m.m.m.m.m.m.m.m.m.m.m.m.m.m.m.m.",
"m.m.m.m.m.m.m.m.m.m.m.m.m.m.m.m.m.m.m.m.:.s ..s.5.^ l O.6.s.5.c c 5.s.6.O.l ^ 5.s...s :.m.m.m.m.m.m.m.m.m.m.m.m.m.m.m.m.m.m.m.m.",
"m.m.m.m.m.m.m.m.m.m.m.m.m.m.m.m.m.m.:.p ` 6.%.^ l O.6.p.5.z e c c e z 5.p.6.O.l ^ %.6.` p :.m.m.m.m.m.m.m.m.m.m.m.m.m.m.m.m.m.m.",
"m.m.m.m.m.m.m.m.m.m.m.m.m.m.m.m.:.s ..v %.^ l 1.g.p.5.^ l 1.6.c c 6.1.l ^ 5.p.g.1.l ^ %.v ..s :.m.m.m.m.m.m.m.m.m.m.m.m.m.m.m.m.",
"m.m.m.m.m.m.m.m.m.m.m.m.m.m.m.Z { f.4.& l 1.v p.5.^ l 1.p.g.5.c c 5.g.p.1.l ^ 5.p.v 1.l & 4.f.{ Z m.m.m.m.m.m.m.m.m.m.m.m.m.m.m.",
"m.m.m.m.m.m.m.m.m.m.m.m.m.m.m.h a.( l 1.g.g.e ^ l O.6.6.5.z e c c e z 5.6.6.O.l ^ e g.g.1.l ( a.h m.m.m.m.m.m.m.m.m.m.m.m.m.m.m.",
"m.m.m.m.m.m.m.m.m.m.m.m.m.m.m.0 e O.p.s.5.^ 4 O.p.s.%.^ r 1.p.c c p.1.r ^ %.s.p.O.4 ^ 5.s.p.O.e 0 m.m.m.m.m.m.m.m.m.m.m.m.m.m.m.",
"m.m.m.m.m.m.m.m.m.m.m.m.m.m.m.d 6.6.5.^ l O.k 6.%.^ l 1.s.6.%.c c %.6.s.1.l ^ %.6.k O.l ^ 5.6.6.d m.m.m.m.m.m.m.m.m.m.m.m.m.m.m.",
"m.m.m.m.m.m.m.m.m.m.m.m.m.m.m.d %.^ l 1.p.f.e ^ l ~ 6.s.5.^ e c c e ^ 5.s.6.~ l ^ e f.p.1.l ^ %.d m.m.m.m.m.m.m.m.m.m.m.m.m.m.m.",
"m.m.m.m.m.m.m.m.m.m.m.m.m.m.m.w l 1.p.l.a.( 4 O.6.v %.^ l O.p.c c p.O.l ^ %.v 6.O.4 ( a.l.p.1.l w m.m.m.m.m.m.m.m.m.m.m.m.m.m.m.",
"m.m.m.m.m.m.m.m.m.m.m.m.m.m.m.2 p.d.a.( l 1.p.6.%.& l O.6.i.8.c c 8.i.6.O.l & %.6.p.1.l ( a.d.p.2 m.m.m.m.m.m.m.m.m.m.m.m.m.m.m.",
"m.m.m.m.m.m.m.m.m.m.m.m.m.m.m.h a.( l 1.g.s.%.^ l 1.s.d.8.! e c c e ! 8.d.s.1.l ^ %.s.g.1.l ( a.h m.m.m.m.m.m.m.m.m.m.m.m.m.m.m.",
"m.m.m.m.m.m.m.m.m.m.m.m.m.m.m.0 r 1.p.p.%.^ l o.6.l.a.( l O.p.c c p.O.l ( a.l.6.o.l ^ %.p.p.1.r 0 m.m.m.m.m.m.m.m.m.m.m.m.m.m.m.",
"m.m.m.m.m.m.m.m.m.m.m.m.m.m.m.d 6.&.#.^ l 1.k d.a.( l 1.6.6.5.c c 5.6.6.1.l ( a.d.k 1.l ^ #.&.6.d m.m.m.m.m.m.m.m.m.m.m.m.m.m.m.",
"m.m.m.m.m.m.m.m.m.m.m.m.m.m.m.d %.z l O.g.g.f ( l 1.p.6.%.^ r c c r ^ %.6.p.1.l ( f g.g.O.l z %.d m.m.m.m.m.m.m.m.m.m.m.m.m.m.m.",
"m.m.m.m.m.m.m.m.m.m.m.m.m.m.m.0 e O.6.s.5.^ 4 1.s.6.%.^ l O.p.c c p.O.l ^ %.6.s.1.4 ^ 5.s.6.O.e 0 m.m.m.m.m.m.m.m.m.m.m.m.m.m.m.",
"m.m.m.m.m.m.m.m.m.m.m.m.m.m.m.d 6.p.5.^ l O.k p.%.^ l O.6.6.#.c c #.6.6.O.l ^ %.p.k O.l ^ 5.p.6.d m.m.m.m.m.m.m.m.m.m.m.m.m.m.m.",
"m.m.m.m.m.m.m.m.m.m.m.m.m.m.m.d 5.^ l 1.s.6.e ^ l O.n l.a.! e c c e ! a.l.n O.l ^ e 6.s.1.l ^ 5.d m.m.m.m.m.m.m.m.m.m.m.m.m.m.m.",
"m.m.m.m.m.m.m.m.m.m.m.m.m.m.m.w l o.p.g.5.^ 4 O.p.f.f ( l 1.s.c c s.1.l ( f f.p.O.4 ^ 5.g.p.o.l w m.m.m.m.m.m.m.m.m.m.m.m.m.m.m.",
"m.m.m.m.m.m.m.m.m.m.m.m.m.m.m.d &.p.5.^ l 1.g.f.a.( 4 1.g.p.6.N N 6.p.g.1.4 ( a.f.g.1.l ^ 5.p.&.d m.m.m.m.m.m.m.m.m.m.m.m.m.m.m.",
"m.m.m.m.m.m.m.m.m.m.m.m.m.m.m.d 5.^ l O.s.l.a.( l 1.p.p.s.f.h., , h.f.s.p.p.1.l ( a.l.s.O.l ^ 5.d m.m.m.m.m.m.m.m.m.m.m.m.m.m.m.",
"m.m.m.m.m.m.m.m.m.m.m.m.m.m.m.0 e O.6.p.a.( l ) p.&.g.l.h.+., o o , +.h.l.g.&.p.) l ( a.p.6.O.e 0 m.m.m.m.m.m.m.m.m.m.m.m.m.m.m.",
"m.m.m.m.m.m.m.m.m.m.m.m.m.m.m.d 6.6.%.^ l 1.g.k p.l.h.+., > ] O O ] > , +.h.l.p.k g.1.l ^ %.6.6.d m.m.m.m.m.m.m.m.m.m.m.m.m.m.m.",
"m.m.m.m.m.m.m.m.m.m.m.m.m.m.m.d %.^ l 1.p.6.g.m h.+., O * x.n.% , n.x.* O , +.h.m g.6.p.1.l ^ %.d m.m.m.m.m.m.m.m.m.m.m.m.m.m.m.",
"m.m.m.m.m.m.m.m.m.m.m.m.m.m.m.0 e 1.p.&.p.l.h.= , > 0.i +.M n.- , n.M +.i 0.> , = h.l.p.&.p.1.e 0 m.m.m.m.m.m.m.m.m.m.m.m.m.m.m.",
"m.m.m.m.m.m.m.m.m.m.m.m.m.m.m.g p.&.p.l.h.+., > 0.n.n.n.a +.M , , M +.a n.n.n.0.> , +.h.l.p.&.p.g m.m.m.m.m.m.m.m.m.m.m.m.m.m.m.",
"m.m.m.m.m.m.m.m.m.m.m.m.m.m.m.2 p.l.h.+., > 0.n.n.n.n.n.n.a +., , +.a n.n.n.n.n.n.0.> , +.h.l.p.2 m.m.m.m.m.m.m.m.m.m.m.m.m.m.m.",
"m.m.m.m.m.m.m.m.m.m.m.m.m.m.m.x h.+., > 0.n.k.j.j.b.n.n.z.z.a - , a z.z.n.n.b.j.j.k.n.0.> , +.h.x m.m.m.m.m.m.m.m.m.m.m.m.m.m.m.",
"m.m.m.m.m.m.m.m.m.m.m.m.m.m.m.9 ,   > V V V V j V V V V j V V % % V V j V V V V j V V V V >   , 9 m.m.m.m.m.m.m.m.m.m.m.m.m.m.m.",
"m.m.m.m.m.m.m.m.m.m.m.m.m.e.;.;.+ @.3.9.9.9.@.3.3.3.9.9.9.9.9._ _ 3.@.@.3.3.9.9.9.9.9.@.3.@.@.+ ;.;.e.m.m.m.m.m.m.m.m.m.m.m.m.m.",
"m.m.m.m.m.m.m.m.m.m.m.m.m.m.,.;.% X 1 y y y y y y y 1 y y y q 1 1 1 q y y q y y y y y y q 1 X - ;.,.m.m.m.m.m.m.m.m.m.m.m.m.m.m.",
"m.m.m.m.m.m.m.m.m.m.m.m.m.e.;.;.% - k.n.n.n.n.n.n.n.k.n.n.n.b.v.n.k.n.n.n.k.n.n.n.n.n.n.n.2.% - ;.;.e.m.m.m.m.m.m.m.m.m.m.m.m.m.",
"m.m.m.m.m.m.m.m.m.m.m.m.m.m.,.;.- , w.c.M c c c *.b.b.7.c c c c c c c c 7.b.b.*.c c c M c.k.- , ;.,.m.m.m.m.m.m.m.m.m.m.m.m.m.m.",
"m.m.m.m.m.m.m.m.m.m.m.m.m.e.;.;., , z.y +.5 b b u z.n.V % - - , , , - % V n.z.u b b 5 +.y z., - ;.;.e.m.m.m.m.m.m.m.m.m.m.m.m.m.",
"m.m.m.m.m.m.m.m.m.m.m.m.m.e.,.;., , z.y } | [ [ , z.n.z.O & & 3 : & & O z.n.z., [ [ | } y q.% % ;.,.e.m.m.m.m.m.m.m.m.m.m.m.m.m.",
"m.m.m.m.m.m.m.m.m.m.m.m.m.,.>.;., - z.y } 5 b b , z.n.z.- - Q } / Q - - z.n.z., b b 5 } y j.- , ;.>.,.m.m.m.m.m.m.m.m.m.m.m.m.m.",
"m.m.m.m.m.m.m.m.m.m.m.m.m.e.;.;.% % w.y } | [ [ , w.j.w., $ ' ; ; Q , , w.b.w., [ [ | } y z., , ;.;.e.m.m.m.m.m.m.m.m.m.m.m.m.m.",
"m.m.m.m.m.m.m.m.m.m.m.m.m.m.,.;.- , j.c.< , , ,  .n.k.z.% , / ; ; / , , z.j.n. ., , , < c.j.% , ;.,.m.m.m.m.m.m.m.m.m.m.m.m.m.m.",
"m.m.m.m.m.m.m.m.m.m.m.m.m.,.>.;.% 7 M.y.M.-.u.u.N.y.M.t.- $ B } / Q , - t.r.N.N.=.u.-.M.N.M.6 % ;.>.,.m.m.m.m.m.m.m.m.m.m.m.m.m.",
"m.m.m.m.m.m.m.m.m.m.m.m.m.m.;.;.# K F T L U W E T U D S , , t } Q t , % G U E Y G W T G G R U # ;.;.m.m.m.m.m.m.m.m.m.m.m.m.m.m.",
"m.m.m.m.m.m.m.m.m.m.m.m.m.,.>.;.C <.J P <.P J e.J P J J o . @ @ @ @ . X H J ,.J <.I J P <.P P C ;.>.,.m.m.m.m.m.m.m.m.m.m.m.m.m.",
"m.m.m.m.m.m.m.m.m.m.m.m.m.m.m.;.;.;.;.;.;.;.;.;.;.;.;.;.8 D G U G G D 8 ;.;.;.;.;.;.;.;.;.;.;.;.;.m.m.m.m.m.m.m.m.m.m.m.m.m.m.m.",
"m.m.m.m.m.m.m.m.m.m.m.m.m.m.,.>.>.e.e.;.m.>.e.e.,.,.e.>.A G U U U U G A >.e.,.,.e.e.>.m.;.e.e.>.>.,.m.m.m.m.m.m.m.m.m.m.m.m.m.m.",
"m.m.m.m.m.m.m.m.m.m.m.m.m.m.m.m.m.m.m.e.m.m.m.m.m.m.m.m.m.m.m.m.m.m.m.m.m.m.m.m.m.m.m.m.e.m.m.m.m.m.m.m.m.m.m.m.m.m.m.m.m.m.m.m.",
"m.m.m.m.m.m.m.m.m.m.m.m.m.m.m.m.m.m.m.m.m.m.m.m.m.m.m.m.m.m.m.m.m.m.m.m.m.m.m.m.m.m.m.m.m.m.m.m.m.m.m.m.m.m.m.m.m.m.m.m.m.m.m.m.",
"m.m.m.m.m.m.m.m.m.m.m.m.m.m.m.m.m.m.m.m.m.m.m.m.m.m.m.m.m.m.m.m.m.m.m.m.m.m.m.m.m.m.m.m.m.m.m.m.m.m.m.m.m.m.m.m.m.m.m.m.m.m.m.m.",
"m.m.m.m.m.m.m.m.m.m.m.m.m.m.m.m.m.m.m.m.m.m.m.m.m.m.m.m.m.m.m.m.m.m.m.m.m.m.m.m.m.m.m.m.m.m.m.m.m.m.m.m.m.m.m.m.m.m.m.m.m.m.m.m.",
"m.m.m.m.m.m.m.m.m.m.m.m.m.m.m.m.m.m.m.m.m.m.m.m.m.m.m.m.m.m.m.m.m.m.m.m.m.m.m.m.m.m.m.m.m.m.m.m.m.m.m.m.m.m.m.m.m.m.m.m.m.m.m.m.",
"m.m.m.m.m.m.m.m.m.m.m.m.m.m.m.m.m.m.m.m.m.m.m.m.m.m.m.m.m.m.m.m.m.m.m.m.m.m.m.m.m.m.m.m.m.m.m.m.m.m.m.m.m.m.m.m.m.m.m.m.m.m.m.m.",
"m.m.m.m.m.m.m.m.m.m.m.m.m.m.m.m.m.m.m.m.m.m.m.m.m.m.m.m.m.m.m.m.m.m.m.m.m.m.m.m.m.m.m.m.m.m.m.m.m.m.m.m.m.m.m.m.m.m.m.m.m.m.m.m.",
"m.m.m.m.m.m.m.m.m.m.m.m.m.m.m.m.m.m.m.m.m.m.m.m.m.m.m.m.m.m.m.m.m.m.m.m.m.m.m.m.m.m.m.m.m.m.m.m.m.m.m.m.m.m.m.m.m.m.m.m.m.m.m.m."
};
