/* XPM */
static char *_be0bd808ea04d228304bbf3a6367488RlxqGYaDO7KTBwPu[] = {
/* columns rows colors chars-per-pixel */
"64 64 204 2 ",
"   c #30663E",
".  c #346F3D",
"X  c #39793A",
"o  c #2A5946",
"O  c #2C5D45",
"+  c #305E4D",
"@  c #2D6147",
"#  c #356B44",
"$  c #346C4B",
"%  c #3B6C4F",
"&  c #3C7543",
"*  c #356D51",
"=  c #3B6D51",
"-  c #357352",
";  c #3B7352",
":  c #3D7954",
">  c #4A694A",
",  c #41754F",
"<  c #4C714C",
"1  c #45794C",
"2  c #4A7D4D",
"3  c #527B48",
"4  c #4A6A52",
"5  c #457453",
"6  c #457A56",
"7  c #437C54",
"8  c #4B7B55",
"9  c #4A7F59",
"0  c #507554",
"q  c #537C55",
"w  c #3D8732",
"e  c #44972E",
"r  c #458D37",
"t  c #458D3D",
"y  c #479636",
"u  c #45943E",
"i  c #4A933E",
"p  c #46993E",
"a  c #4A9C3F",
"s  c #5E9F3F",
"d  c #4CAA25",
"f  c #48A428",
"g  c #4FB521",
"h  c #55B525",
"j  c #4BA032",
"k  c #4DA13F",
"l  c #58A73E",
"z  c #67B738",
"x  c #6ED21E",
"c  c #70C52F",
"v  c #73C532",
"b  c #3C8446",
"n  c #3E8B42",
"m  c #3C8349",
"M  c #448446",
"N  c #438B45",
"B  c #498C40",
"V  c #4B844B",
"C  c #448C4A",
"Z  c #4A8F4A",
"A  c #53844B",
"S  c #578848",
"D  c #479541",
"F  c #4D9442",
"G  c #4C9E40",
"H  c #4C9349",
"J  c #529741",
"K  c #5E9446",
"L  c #519C43",
"P  c #599C45",
"I  c #56924C",
"U  c #5A944E",
"Y  c #559D4C",
"T  c #458155",
"R  c #4B8456",
"E  c #4C8B52",
"W  c #4B8559",
"Q  c #4E8959",
"!  c #558256",
"~  c #588651",
"^  c #528C54",
"/  c #5C8C55",
"(  c #568459",
")  c #588659",
"_  c #548D5A",
"`  c #5A8C5A",
"'  c #549253",
"]  c #5B9454",
"[  c #5D9C55",
"{  c #57905B",
"}  c #5E945C",
"|  c #5F995B",
" . c #639747",
".. c #629D4D",
"X. c #609454",
"o. c #639B54",
"O. c #60975E",
"+. c #629A5B",
"@. c #4EA141",
"#. c #52A542",
"$. c #5CA446",
"%. c #56AA43",
"&. c #5BAF43",
"*. c #56A54A",
"=. c #5DA54D",
"-. c #5DAD49",
";. c #5CB245",
":. c #5CB448",
">. c #64A44B",
",. c #64AD4A",
"<. c #68A948",
"1. c #6BAB4C",
"2. c #72AD4A",
"3. c #60B647",
"4. c #60B847",
"5. c #62B44A",
"6. c #6AB54C",
"7. c #63BB4B",
"8. c #6BBC4E",
"9. c #74B246",
"0. c #66A355",
"q. c #68A454",
"w. c #62AC52",
"e. c #6CAB53",
"r. c #66A05A",
"t. c #69A65A",
"y. c #6EB253",
"u. c #64BA51",
"i. c #72B253",
"p. c #73BC52",
"a. c #70B158",
"s. c #568B66",
"d. c #518E6E",
"f. c #559865",
"g. c #5A946A",
"h. c #5D9A6A",
"j. c #629B63",
"k. c #62996B",
"l. c #639A72",
"z. c #6AA467",
"x. c #61A274",
"c. c #73AB77",
"v. c #66C14D",
"b. c #6AC44E",
"n. c #7AC445",
"m. c #7DC449",
"M. c #6FC350",
"N. c #6FCA51",
"B. c #6BC159",
"V. c #74C351",
"C. c #7AC553",
"Z. c #74CB52",
"A. c #7CCC54",
"S. c #7DC958",
"D. c #77D053",
"F. c #7CD155",
"G. c #6EC660",
"H. c #73CC68",
"J. c #7AD06B",
"K. c #7CD471",
"L. c #94F21F",
"P. c #9AF91C",
"I. c #81D928",
"U. c #8AE325",
"Y. c #93EF20",
"T. c #94F120",
"R. c #83AF4E",
"E. c #8AB850",
"W. c #81BF64",
"Q. c #80CF41",
"!. c #82CC5B",
"~. c #82D157",
"^. c #84D459",
"/. c #8AD65B",
"(. c #83D858",
"). c #8BDA5B",
"_. c #90DB5D",
"`. c #95E35F",
"'. c #8DCE65",
"]. c #95DC65",
"[. c #95E360",
"{. c #9BE664",
"}. c #A1EB65",
"|. c #A5EA6B",
" X c #ACE674",
".X c #B1EE74",
"XX c #BBF27C",
"oX c #D8C25B",
"OX c #CAD471",
"+X c #61998A",
"@X c #61A787",
"#X c #78AC89",
"$X c #61AF99",
"%X c #7BB89B",
"&X c #6DACA8",
"*X c #79B9A1",
"=X c #84A78E",
"-X c #85B58F",
";X c #83BB99",
":X c #96C195",
">X c #AAC18F",
",X c #BDE699",
"<X c #BDEFBC",
"1X c #AAE4C6",
/* pixels */
"+.+X` OX] +.e.} g.` ! } O.] O.O.O.&X` o.} O.O.O.r.O.: h.` ~ +.q.} ( O.+.` e.e.O.O.O.O.} } ~ O.O.O.r.} +X` : e.%X_ ` ~ ^ Q j.- : ",
": ..2.+.] } ! O.U A k.O.O.' O.` +.<. .} } 0 ( O.} O.e.9 1.E.O.! O.O.q.q +.O.` } } +.l.} >.R.q ) O.} O...9.n.W W } R ,.> + 8 - 9 ",
"` +.+.+.} _ T ( O.O.+.` O.O.O.O.O.O.O.O.O.O.O.O.O.O.O.O.O.O.O.O.O.O.O.O.O.O.O.O.O.O.O.O.} O.O.O.O.O.O.O.` ` O.O.! +.7 R , >.V 1.",
"` 0 0.O.` ^ } | O.O.+.q O.O.O.O.} O.O.O.O.O.O.O.O.} O.O.O.O.O.O.O.O.  O.O.O.O.O.O.O.O.O.O.O.O.O.O.O.} } } e.O.q.j.1X6 +.7 ; 3 [ ",
"O.+.} ` +.+.T R O.O.} +.O.O.O.O.O.O.O.O.O.O.O.O.O.O.O.O.O.O.O.O.O.O.} O.` O.O.O.O.O.O.O.} } O.O.O.O.O.} O./ } q.` +.R 7 7 < & ; ",
"O.O.O.O.O.O.O.O.O.O.O.O.&.&.&.O.O.O.O.) O.O.O.O.O.O.O.O.q O.O.O.O.O.O.O.O.O.O.O.O.O.O.O.O.O.O.O.O.O.O.O.O.` q O.( +.` 4 n.y.: 5 ",
"} O.O.O.O.O.O.O.O.O.| &.&.&.&.&.O.O.O.O.O.O.O.O.O.O.O.O.O.O.O.O.O.O.O.O.O.O.O.O.O.O.O.O.O.O.O.O.O.O.O.} } ~ ( O.n.O.E +.' =X= * ",
"O.O.O.O.O.O.O.O.O.O.&.&.&.&.&.&.&.=.-.O.O.O.O.O.| =.O.O.O.O.O.| O.| [ O.| O.-.O.| [ =.-.O.O.O.O.O.O.O.O.O.` e.O.O.O.^ { : } - * ",
"O.O.O.O.O.O.O.O.O.-.&.p #.%.%.%.%.&.&.&.O.O.O.&.&.&.-.O.O.O.&.V.&.;.&.&.G k -.%.#.%.;.&.&.O.O.O.O.O.} _ R O.e.} { 0 g.j.^ W U E ",
"O.O.O.O.O.O.O.O.&.&.;.&.8.A.G &.A.#.@.&.&.O.&.&.&.&.&.-.O.&.&.@.-.%.%.-.&.V.).G &.^.#.a &.&.O.O.O.! O.2 O t.q.T _ T 0.3 0.T q 1 ",
"O.O.O.&.:.&.#.&.&.&.%.;.%.@.&.#.%.#.&.&.:.;.&.&.&.&.&.&.&.4.:.@.;.%.&.%.;.%.a &.%.%.#.&.&.&.O.O.O.O.O.} O.+.O.O.} ` ^ ) y.} 7 U ",
"O.O.-.&.a %.v.#.-.p &.@.V.a G @.5.%.&.a #.%.&.&.&.&.&.&.&.a :.:.#.5.@.;.@.8.G G @.-.#.&.#.#.O.O.O.O.O.O.I.O.O.O.e.} h.q.0.o.% 2 ",
"[ &.&.&.G a G @.A.G 7.L J A.%.u ~.#.#.&.%.%.G &.&.&.&.&.&.a a i $.L V.7.L L (.#.u /.#.G &.%.O.O.O.O.O.( } } O.O.q +.T R 5 f.T ; ",
"&.&.5.A.#.&.&.%.6.a 8.:.$./.a ].5.$.a u &.k #.&.&.&.&.7.P.H p (.G P L.8.;.-.).G V.5.#.a a &.O.O.O.O.O.O.O.` O.O.! +.} } c.O.C.' ",
"&.&.5.&.a &.;.a @.o ^.8.%.#.:.a @.i &.p A.k ;.&.&.&.%.%.%.{.:.u L i a /.b.L '.&.a &.t L a Z.[ O.O.O.O.O.O.e.} e.k.<Xo.O._ E 8 @X",
"&.&.u.&.7.#.&.#.:.Z.i G %.&.@.@.$.@.:.8.7.;.;.&.&.&.u p z y :.:.u {.Z.i L a i G @.$.6.b.V.7.O.O.O.O.O.O.} / O.q.} } O.O.7 : q.R ",
"&.&.&.&.;.&.&.a C.D.8.D w U.#.Z.#.@.f u a &.&.&.&.&.#.A.;.U.p @ n V.F.%.@.w T.p Z.#.,.[.a a O.O.O.} O.O.O.O.O.O.( +.} 4 ! 2.U o.",
"&.&.&.B.&.&.&.a A.`.v %.%.F 7.).5.k ;.8.;.&.&.&.&.&.p :.z G #._.*.A./.u %.%.B :.).-.@.&.V.;.O.O.O.O.O.O.O.+.} O.n.O.E 0.o.I 3 A ",
"&.&.&.u.&.&.G #.b.J @.U d #.:.a t ;.G %.&.&.&.&.&.&.G %.k y # -.u b.B @.7.d #.;.p t 4.a -.&.O.O.O.O.O.O.O.} O.O.O.} _ ] O.} 7 : ",
"&.&.&.&.:.&.).&.%.~.5.i `.f L i . &.U.&.&.&.&.&.&.&.&.:.&.#.V.H '.-.C.5.i `.d G L %.&.&.&.| } . T O._ O.O.O.O.O.` } s.j.} ! d.W ",
"&.&.&.&.H.&.@.5.@.a ).G ] S.&.Y $ m a 7.:.&.&.&.&.&.&.&.u G p D -.%.7.).#.0.S.#.&.^.#.&.-.O.O._ _ O.O.O.O.O.O.} } O.>.3 ,X+.] +.",
"&.&.&.&.&.&.&.&.#.&.(.D.$.a %.'.%.%.&.&.&.&.&.&.&.&.&.&.#.;.4.@.&.#.&.#.;.$.G ;.%.%.&.&.} O.O.O.O.O.O.O.O.O.O.O.} O.O.O.e.O.7 >.",
"&.&.&.&.&.&.v.#.-.a {.8.:.|.%.;.5.%.&.&.#.&.&.&.&.&.&.&.&.@.:.:.#.5.G ;.M #.|.@.@.-.&.;.&.O.O.O.O.O.O.O.} O.O.O.O.O.z.O.[ X.% V ",
"&.&.&.&.&.&.@.@.A.G 8.L F V.%.G :.-.A.%.Y.&.&.&.&.&.&.&.&.&.a @.@.V.%.#.Z F A.%.G %.5.H.&.&.O.O.O.O.O.O.O.O.O.) ) O.} O.5 f.T ; ",
"&.&.&.&.&.&.&.%.V.p Y -.].A.7.&.N -.#.I.H &.&.&.&.&.&.;.&.&.&.&.&.&.L.p %.w.I.#.&.-.&.&.&.&.&.&.&.O.O.O.O.` O.} 7 ] 0.e., >.C.^ ",
"&.&.&.&.&.&.;.a @.p C -.a #.;.a @.a &.&.%.&.&.&.&.&.&.;.&.&.&.&.&.&.&.#.@.%.C ;.a @.&.K.&.&.&.&.&.&.O.O.O.O.O.O.0.} j.` 7 7 8 @X",
"&.&.&.&.&.&.&.@.;.D w.& %.&.%.&.-.k &.&.&.&.&.&.&.&.&.7.&.&.&.&.&.&.&.V.#.&.&.#.&.&.&.&.&.&.&.&.&.&.=.| | O.O.7 ` r./ / : < q.T ",
"&.&.&.&.&.&.&.&.7.p j b -.5.&.e t :.&.&.&.&.&.&.&.&.&.&.&.&.&.&.&.&.&.#.#.%.8.&.&.&.&.&.&.&.&.&.&.&.&.&.&.O.O.O._ O.` m.r.} s.>X",
"&.&.&.&.&.&.&.&.;.@.V.#.#.#.#.C : @.&.&.&.&.&.&.&.&.&.&.&.&.&.&.&.&.&.&.-.#.@.&.&.&.&.&.&.&.&.&.&.&.&.&.&.O.O.O.} +.d.7 j.} ] [ ",
"&.&.&.&.&.&.&.&.7.a %.7.&.#.%.#.@.;.@.&.&.&.&.&.&.&.&.&.&.&.&.&.&.&.&.&.&.&.G &.&.&.&.&.&.&.&.&.&.&.&.&.&.O.O.O.} +._ ] } } { R ",
"y # : &.&.&.&.&.%.&.:.a a ;.&.-.%.&.;.&.&.&.&.&.&.&.&.&.&.&.&.&.&.&.&.&.G a %.:.&.&.&.&.&.&.&.&.&.&.&.&.&.O.O.O.` +.` } l.o.; 1.",
". &.L &.&.&.&.&.7.G %.&.8.A.&.%.V.#.&.&.&.&.&.&.&.&.&.&.&.&.&.&.&.&.&.-.&.8.^.%.&.&.&.&.&.&.&.&.&.&.&.&.&.O.O.} ` +.;X} >.K ~ T ",
"L &.&.&.&.&.&.&.&.&.&.&.#.@.&.%.%.&.&.&.&.&.&.&.&.&.&.&.&.&.&.&.&.&.&.k ;.#.a &.&.&.&.&.&.&.&.&.&.U.%.&.&.O.O.O.O.O.O.` O.O._ { ",
"&.&.h &.&.&.&.&.&.&.&.&.&.a G @.5.&.&.&.&.&.&.&.&.&.&.&.&.&.&.&.&.&.&.4.#.8.a &.&.&.&.&.&.&.&.&.&.&.%.&.&.O.O.O.O.} } ) 0 } oXT ",
"&.-.#.&.&.&.&.&.&.&.&.&.&.&.G &.&.&.&.&.&.&.&.&.&.&.&.&.&.&.&.&.&.&.&.&.%.%.:.%.&.&.&.&.&.&.&.&.&.&.&.&.&.O.O.O.` O.X.A ` O.+._ ",
"&.&.&.&.&.&.&.&.&.&.&.&.&.&.&.&.&.&.&.&.&.&.&.&.&.&.&.&.&.&.&.&.&.&.&.&.&.8.~.:.&.&.&.&.&.&.&.&.&.&.&.&.&.O.O.O.` +.` O.-Xj.c H ",
"&.&.&.&.&.&.&.&.&.&.&.&.&.&.&.&.&.&.&.&.&.&.&.&.&.&.&.&.&.&.&.&.&.&.&.&.&.%.%.;.@.;.&.&.&.&.&.&.&.&.&.&.&.O.O.O.+.O.] } } E 8 $X",
"&.&.&.&.&.&.&.&.&.&.&.&.&.&.&.&.&.&.&.&.&.&.&.&.&.&.&.&.&.&.&.&.&.&.&.&.&.;.&.%.&.#.&.&.&.&.&.&.&.&.&.&.&.O.O.` ` O.+.+.: R x ; ",
"&.&.&.&.&.&.&.&.&.&.&.&.&.&.&.&.&.&.&.&.&.&.&.&.&.&.&.&.&.&.&.#.&.:.a %.@.%.7.&.@.@.4.&.&.&.&.&.&.&.O.O.O.O.O.O.O.O.} O.+.} o.R ",
"&.&.&.&.&.&.&.&.&.&.&.&.&.&.&.&.&.&.&.&.&.&.&.&.&.&.&.&.&.&.&.&.&.:.@.M.;.#.%.#.&.#.#.&.&.&.&.&.&.O.O.O.O.O.O.O.} O.} ! z.O.7 %X",
"&.&.&.&.&.&.&.&.&.&.&.&.&.&.&.&.&.&.&.&.&.&.&.&.&.&.&.&.&.&.&.&.&.7.a -.7.&.G &.#.@.:.@.&.&.-.-.-.O.O.O.O.O.O.O.O.O.O.O.} } ] R ",
"&.&.&.&.&.&.&.&.&.&.&.&.&.&.&.&.&.&.&.&.&.&.&.&.&.&.&.;.&.#.A.~.&.#.%.:.M a %.%.%.#.%.#.&.| O.O.O.O.} O.O.O.O.O.O.O.` } @Xo.*XT ",
"&.&.&.&.&.&.&.&.&.&.&.&.&.&.&.&.&.&.&.&.&.&.&.&.&.&.&.;.&.G p a %.-.@.X L 7.8.,.#.Z.-.5.=.O.O.O.O.! O.O.O.O.O.O.q O.#XO.>.K ] O.",
"&.&.&.&.&.&.&.&.&.&.&.&.&.&.&.&.&.&.&.&.&.&.&.&.&.&.&.;.&.v.7.@.;.#.@.8.7.t %.;.%.%.:.%.} O.O.O.O.O.O.O.O.Z O.O.O.O.+./ O.O.Q.+.",
"Z.&.&.&.&.&.&.&.&.&.&.&.&.&.&.&.&.&.&.&.&.&.&.&.&.&.&.&.&.#.;.:.#.,.p.^.^.-.a @.@.-.#.&.&.O.O.O.O.O.O.O.} O.] O.O.O.} ) q O.: ^ ",
"8.&.&.&.&.&.&.&.&.&.&.&.&.&.&.&.&.&.&.&.&.&.&.&.&.&.7.;.&.#.@.#.G a F.M.L -.:.G @.:.a &.&.&.O.O.O.O.O.O.} z g ` ` O.] A ] } 1.T ",
"8.&.&.&.&.&.&.&.&.&.&.&.&.&.&.&.&.&.&.&.&.&.&.&.&.&.%.7.7.G &.#.#.8.8.p #.b T.:.%.%.u.&.&.&.&.&.;.} O.O.O.O.l O.O.O.` } :Xz.s q.",
"%.&.&.&.&.&.&.&.&.&.&.&.&.&.&.&.&.&.&.&.&.&.&.&.&.&.#.%.%.G &.;.a @.a #.G %.Z &.a #.5.H.&.&.&.&.&.&.O.O.O.^ O.O.O.O./ } O.E  .] ",
":.&.&.&.&.&.&.&.&.&.&.&.&.&.&.&.&.&.&.&.&.&.&.&.&.&.a a a &.%.i G -.a V.%.:.&.%.&.&.:.&.&.&.&.&.&.&.-.O.O.O.g O.O.O.+.O.: Q & ; ",
"-.&.H &.&.&.&.&.:.@.%.G -.&.&.&.&.&.&.&.&.&.&.&.a ;.#.M.-.p p ,.'.:.@.%.@.&.&.&.&.&.&.&.&.&.&.&.&.&.&.=.O.O.O.O.! O.W p.( q.7 =X",
"%.C &.&.&.G.&.&.:.@.7.&.-.5.&.&.&.&.&.&.&.&.&.&.7.G p :.a #.a 8.%.:.@.8.;.&.&.&.&.&.&.&.&.&.&.&.&.&.&.&.-.O.O.` O.O.R R ..S | 0.",
"#.&.%.&.&.&.&.&.7.@.%.7.&.#.&.&.&.&.&.&.&.&.&.&.&.#.@.;.3.@.&.%.a 7.@.&.&.&.&.&.&.&.&.&.&.&.&.&.&.&.&.&.&.O.O.O.O.O._ ] O.} _ R ",
"@.&.;.&.&.&.`.%.G &.;.a u %.%.-.@.%.&.&.&.&.&.&.p a ;.-.:.A.u V.&.a &.&.&.&.&.&.&.&.&.&.&.&.&.&.&.&.&.&.&.O.O.O.O.O.` ] ) M I T ",
"#.&.;.&.&.&.G %.8.G -.#.:.8.G #.8.-.8.&.;.&.&.&.#.p @.a D.F.p a #.5.&.&.&.&.&.&.&.&.&.&.&.&.&.&.&.&.&.&.&.O.O.O.q O.} P . ' 8 : ",
"-.#.%.8.%.:.@.;.L @.D.v.-.a ;.%.-.:.#.#.7.-.:.4.&.5.D.G ,.G 4.#.%.&.&.&.&.&.&.&.&.&.&.&.&.&.&.&.&.&.&.&.&.O.O.O.O.O.O.} 0.} 1 9.",
"V.4.%.A.a %.7.#.$.A.(.(.#.a #.@.-.#.&.k ~.#.a ;.Z.A.]./.6.[.;.:.#.&.J.&.&.&.&.&.&.&.&.&.&.&.&.&.&.&.&.&.&.O.O.O.O.} 0.O.9 g.% U ",
"8.#.G %.%.#.i.J a D.A.J t $.G @.:.#.8.#.#.&.%.a p A.:.C.J 7.#.%.%.&.;.&.&.&.&.&.&.&.&.&.&.&.&.&.&.&.&.&.&.O.O.` } O.+.O.+.: 7 ; ",
"7.u 8.b.@.p N.#.$.x #.@.:.6.a D.V.%.8.u u m *.u F.V.:.#.A.i &.#.#.&.&.&.&.&.&.&.&.&.&.&.&.&.&.&.&.&.&.&.&.O.O.O.` 0.e.e.+.} a.E ",
"%.#.%.;.p :.,.;.G -.#.G -.P ;.-.%.G $.8.`.;.$.:.-.' i A.#.G &.;.%.&.&.&.&.&.&.&.&.&.&.&.&.&.&.&.&.&.&.&.&.O.O.O.1.O.x.~ +.O.! $X",
",.a @.#.}.%.7.u `.^.8.;.8.a #.@.i -.b.a i r u #.F.>.%.@.k &.%.%.#.&.&.&.&.&.&.&.&.&.&.&.&.&.&.&.&.&.&.&.&.O.O.O.} +.` +.} } q.7 ",
"!.O O V.;.a P  X  d &.u ).a p.A.* #.' a @.8.# W.e g ).8.&.p #.a &.&.&.&.&.&.&.&.&.&.&.&.&.&.# F G &.&.&.-.O.O.O.O.O.} O.) o.] [ ",
"D.i 8.A.u L 5.#.w g 5.#.A.u ;.F.%.L #.5.@.,.N :.O # i 8.p #.a %.&.&.&.&.&.&.&.&.&.&.&.&.&.&.&.#.#.&.&.&.&.O.O.O.` O.} ` ..S ~ 2 ",
"i #.-.-.a &.;.a 7.i -.`.G %.&.@.u G i -.`.a 7.%.:.i @.%.#.@.&.-.&.&.&.&.&.&.&.&.&.&.&.&.&.&.r &.&.&.&.&.&.O.O.O.O.O.O.O.r.} R T ",
"Z.L i :.[.p  Xi.%.C #.#.N..Xa -.].L N G %.;.XXi #.Z.L i #.@.&.&.K.&.&.&.&.&.&.&.&.&.&.&.&.&.&.&.&.&.&.&.O.O.O.O.O.O.+.O.R T I 7 "
};
