/* XPM */
static char *e0328e9317da460595e83dafe740a53f7tvOWWwrv4pBhavD[] = {
/* columns rows colors chars-per-pixel */
"64 64 5 1 ",
"  c None",
". c gray65",
"X c #E3EABD",
"o c #EEF3D3",
"O c #FBFFE1",
/* pixels */
"                                                                ",
"                                                                ",
"                                                                ",
"                                                                ",
"                ............................                    ",
"                ............................                    ",
"                ............................                    ",
"                ............................                    ",
"            ....OOOOOOOOOOOOOOOOOOOOOOOOOOOO........            ",
"            ....OOOOOOOOOOOOOOOOOOOOOOOOOOOO........            ",
"            ....OOOOOOOOOOOOOOOOOOOOOOOOOOOO........            ",
"            ....OOOOOOOOOOOOOOOOOOOOOOOOOOOO........            ",
"        ....OOOOOOOOOOOOOOOOOOOOOOOOOOOOOOOOoooooooo....        ",
"        ....OOOOOOOOOOOOOOOOOOOOOOOOOOOOOOOOoooooooo....        ",
"        ....OOOOOOOOOOOOOOOOOOOOOOOOOOOOOOOOoooooooo....        ",
"        ....OOOOOOOOOOOOOOOOOOOOOOOOOOOOOOOOoooooooo....        ",
"    ....OOOOOOOOOOOOOOOOOOOOOOOOOOOOOOOOOOOOOOOOoooo....        ",
"    ....OOOOOOOOOOOOOOOOOOOOOOOOOOOOOOOOOOOOOOOOoooo....        ",
"    ....OOOOOOOOOOOOOOOOOOOOOOOOOOOOOOOOOOOOOOOOoooo....        ",
"    ....OOOOOOOOOOOOOOOOOOOOOOOOOOOOOOOOOOOOOOOOoooo....        ",
"    ....OOOOOOOOOOOOOOOOOOOOOOOOOOOOOOOOOOOO............        ",
"    ....OOOOOOOOOOOOOOOOOOOOOOOOOOOOOOOOOOOO............        ",
"    ....OOOOOOOOOOOOOOOOOOOOOOOOOOOOOOOOOOOO............        ",
"    ....OOOOOOOOOOOOOOOOOOOOOOOOOOOOOOOOOOOO............        ",
"....OOOOOOOOOOOOOOOOOOOOOOOOOOOOOOOOOOOO................        ",
"....OOOOOOOOOOOOOOOOOOOOOOOOOOOOOOOOOOOO................        ",
"....OOOOOOOOOOOOOOOOOOOOOOOOOOOOOOOOOOOO................        ",
"....OOOOOOOOOOOOOOOOOOOOOOOOOOOOOOOOOOOO................        ",
"....OOOOOOOOOOOOOOOO............OOOOOOOO................        ",
"....OOOOOOOOOOOOOOOO............OOOOOOOO................        ",
"....OOOOOOOOOOOOOOOO............OOOOOOOO................        ",
"....OOOOOOOOOOOOOOOO............OOOOOOOO................        ",
"....OOOOOOOOOOOO....................OOOOOOOO............        ",
"....OOOOOOOOOOOO....................OOOOOOOO............        ",
"....OOOOOOOOOOOO....................OOOOOOOO............        ",
"....OOOOOOOOOOOO....................OOOOOOOO............        ",
"....OOOOOOOOOOOO....................OOOOOOOOOOOOXXXXXXXX....    ",
"....OOOOOOOOOOOO....................OOOOOOOOOOOOXXXXXXXX....    ",
"....OOOOOOOOOOOO....................OOOOOOOOOOOOXXXXXXXX....    ",
"....OOOOOOOOOOOO....................OOOOOOOOOOOOXXXXXXXX....    ",
"....OOOOOOOOOOOOOOOO............OOOOOOOO........XXXXXXXX....    ",
"....OOOOOOOOOOOOOOOO............OOOOOOOO........XXXXXXXX....    ",
"....OOOOOOOOOOOOOOOO............OOOOOOOO........XXXXXXXX....    ",
"....OOOOOOOOOOOOOOOO............OOOOOOOO........XXXXXXXX....    ",
"    ....OOOOOOOOOOOOOOOOOOOOOOOOOOOOOOOO....XXXXXXXXXXXX....    ",
"    ....OOOOOOOOOOOOOOOOOOOOOOOOOOOOOOOO....XXXXXXXXXXXX....    ",
"    ....OOOOOOOOOOOOOOOOOOOOOOOOOOOOOOOO....XXXXXXXXXXXX....    ",
"    ....OOOOOOOOOOOOOOOOOOOOOOOOOOOOOOOO....XXXXXXXXXXXX....    ",
"        ............OOOOXXXXXXXXXXXXXXXXXXXXXXXXXXXXXXXX....    ",
"        ............OOOOXXXXXXXXXXXXXXXXXXXXXXXXXXXXXXXX....    ",
"        ............OOOOXXXXXXXXXXXXXXXXXXXXXXXXXXXXXXXX....    ",
"        ............OOOOXXXXXXXXXXXXXXXXXXXXXXXXXXXXXXXX....    ",
"                    ........XXXX....XXXX....XXXX....XXXX....    ",
"                    ........XXXX....XXXX....XXXX....XXXX....    ",
"                    ........XXXX....XXXX....XXXX....XXXX....    ",
"                    ........XXXX....XXXX....XXXX....XXXX....    ",
"                        ....XXXX....XXXX....XXXX....XXXX....    ",
"                        ....XXXX....XXXX....XXXX....XXXX....    ",
"                        ....XXXX....XXXX....XXXX....XXXX....    ",
"                        ....XXXX....XXXX....XXXX....XXXX....    ",
"                            ............................        ",
"                            ............................        ",
"                            ............................        ",
"                            ............................        "
};
