/* XPM */
static char *fba60750f4a14c6fb81d469215716191nQTR6h1EcLLGrcQK[] = {
/* columns rows colors chars-per-pixel */
"64 64 200 2 ",
"   c #19161B",
".  c #1C1A1E",
"X  c #1E1C21",
"o  c #1C1E2B",
"O  c #211E23",
"+  c #201F28",
"@  c #1F2026",
"#  c #1F212C",
"$  c #1F2433",
"%  c #232125",
"&  c #292326",
"*  c #25242A",
"=  c #2A262B",
"-  c #27282F",
";  c #2B292E",
":  c #302628",
">  c #322C2E",
",  c #242632",
"<  c #2B2630",
"1  c #262A32",
"2  c #2C2C32",
"3  c #2C2D39",
"4  c #322E32",
"5  c #2C3035",
"6  c #2E323B",
"7  c #343135",
"8  c #3A3335",
"9  c #3C3837",
"0  c #32343C",
"q  c #3A363A",
"w  c #36383F",
"e  c #3C393D",
"r  c #423C3D",
"t  c #483C3D",
"y  c #49403E",
"u  c #2E3545",
"i  c #343742",
"p  c #3E3440",
"a  c #363A44",
"s  c #3B3B44",
"d  c #343748",
"f  c #363C49",
"g  c #3A3E4A",
"h  c #363F52",
"j  c #443E42",
"k  c #4A3E43",
"l  c #423E48",
"z  c #3B4047",
"x  c #37434C",
"c  c #3D424D",
"v  c #3D494F",
"b  c #3E4552",
"n  c #3E4955",
"m  c #3E4659",
"M  c #3E4959",
"N  c #444144",
"B  c #4A4345",
"V  c #42434B",
"C  c #4B464A",
"Z  c #43484F",
"A  c #4C494E",
"S  c #504547",
"D  c #554A46",
"F  c #52454B",
"G  c #544B4D",
"H  c #5A4C4C",
"J  c #434653",
"K  c #4D4752",
"L  c #444A55",
"P  c #4B4D54",
"I  c #444C5B",
"U  c #4B4D5A",
"Y  c #554D52",
"T  c #5A4D54",
"R  c #544F59",
"E  c #4C5056",
"W  c #46515D",
"Q  c #4B525C",
"!  c #545254",
"~  c #5C5356",
"^  c #52535C",
"/  c #5C565C",
"(  c #5A595F",
")  c #605556",
"_  c #62565B",
"`  c #635A5D",
"'  c #444E62",
"]  c #484E63",
"[  c #465262",
"{  c #4B5464",
"}  c #4C5964",
"|  c #46556C",
" . c #4A5469",
".. c #4E5A6A",
"X. c #535663",
"o. c #5F5760",
"O. c #535B64",
"+. c #5B5B62",
"@. c #51576C",
"#. c #525C6C",
"$. c #5B5E69",
"%. c #455A71",
"&. c #4D5B73",
"*. c #535D71",
"=. c #585E72",
"-. c #515E79",
";. c #625D61",
":. c #615A66",
">. c #695E62",
",. c #4E606B",
"<. c #546066",
"1. c #5D6066",
"2. c #54616C",
"3. c #5A646C",
"4. c #58686F",
"5. c #4E607B",
"6. c #556374",
"7. c #5A6674",
"8. c #556A74",
"9. c #5D6B74",
"0. c #546279",
"q. c #5A667B",
"w. c #566B7B",
"e. c #5C6B7B",
"r. c #5E7176",
"t. c #5D717E",
"y. c #626165",
"u. c #666265",
"i. c #696165",
"p. c #6B6464",
"a. c #6C6863",
"s. c #62626B",
"d. c #6B666B",
"f. c #6C686B",
"g. c #6C696E",
"h. c #766A68",
"j. c #616674",
"k. c #686775",
"l. c #616870",
"z. c #636D75",
"x. c #6E6B71",
"c. c #60667A",
"v. c #626C7B",
"b. c #686D7A",
"n. c #716C73",
"m. c #786D71",
"M. c #617077",
"N. c #63727C",
"B. c #69747D",
"V. c #707077",
"C. c #787471",
"Z. c #717178",
"A. c #94847F",
"S. c #556581",
"D. c #576882",
"F. c #5D6D84",
"G. c #5A6B89",
"H. c #5F7582",
"J. c #5E718A",
"K. c #626F82",
"L. c #647484",
"P. c #6C7582",
"I. c #6A7A83",
"U. c #6D7885",
"Y. c #63748A",
"T. c #657B89",
"R. c #6C7B8B",
"E. c #727786",
"W. c #747985",
"Q. c #797F87",
"!. c #707C88",
"~. c #7B7D89",
"^. c #647792",
"/. c #6C7D93",
"(. c #727C93",
"). c #6D818B",
"_. c #6C808C",
"`. c #7B8086",
"'. c #72838D",
"]. c #698193",
"[. c #6C879C",
"{. c #6F8899",
"}. c #748093",
"|. c #778897",
" X c #7C8B90",
".X c #748599",
"XX c #7A879D",
"oX c #758B99",
"OX c #7D8898",
"+X c #738CA6",
"@X c #7C8EA0",
"#X c #818188",
"$X c #808D95",
"%X c #869AA7",
"&X c #8A98A1",
"*X c #939DAA",
"=X c #889CB4",
"-X c #90A1AE",
";X c #95A4B1",
":X c #A1BBD2",
/* pixels */
"N 2 s P P Z Z V ;.;._ _ 7 % 2 g W 3.C C & & b #.L.*.I  .I I b m I I I I I I  .....B 8 2 W L L z z V Q } } } } c.! 7 l z. .b.J J ",
"4 X X.^ P P Z +.i.;._ h.9 % 2 U.<.W } y.` & #.J b b n L J I I I I ' [ [ I [  ...[ 9.s = Q L L V Z J O.<.<.O.r.t.t.s q =.[ I I ' ",
"q X O.O.^ ^ f.f.p.p.i.p.> . % V } { } I V & L b a a g b J I [ [ [ [  .[ [ ......M M 7 & Q L W L E } 3.N.N.9.N.N.I.= R.e.{ I I ] ",
"#.X O.O.$.O.$.y.f.f.p.9 % . . 0 2.} [ I J & P I g s a g M J [ [ [ ..*.2.......} [ M 7 & Q Q W Q } 6.3.9.e.7.B.'.U.= Y.=.[ I I  .",
"(.X O.$.$.$.y.y.d.f.f.B = % 2 J 2.} 2 I J & X.I b c g g b b I [ #.#.q.q.*...W I [ 0.7 X X , O.2.2.3.2.2.2.7.M.I.I.= Y.=...U ' [ ",
"R.X O.$.l.l.$.$.g.y.y.y.>   & b 2.2.[ I W & z [ } I g g b J I [ #.q.q.6...I {  .[ ..n X 3 J Q <.9.2.<.9.B.9.M.).L = #.#.@.[ [ [ ",
"2 X X.$.l.B.l.$.s.y./ ^ 7   & 2.} I I I L & 2 } X.} I b b b m J W ......[ [ [  ...6.w X * i { 9.2.2.2.9.I.).).7 s 2 @.] I , [ [ ",
"2 % V O.O.z.B.l./ / / q >   & X I I I I z % & 7 J } } I b b J J m [ [ n h [ [  .#.L.w = X X % b Q 3 3 i Q 8.'.V 7 & }.I I g [ OX",
"X X 2 O.O.V X X j Y e X = X X X X X X X = : O X X X X X X X X X X 1 X X X X X , X X % = X X X X X X X X X X X X 3 & % 3         ",
"B ; & ; 2 O X X X X X 8 8 8 = 4 > & e s 8 8 8 & & V s w % % X % % X X X X X X X X % 4 7 7 s N w s e X s Y ! A q e q 4 4 . . V V ",
"Q O.<.O.O.'._.3.a i v.e.7. . .I K.2 w b I I ^ = 7 V V V V J 7 { $.$.8 8 = ..7.I J *.m ' '  .#. .P B.6 & #. . .s.9.7.#.Q.& & L L ",
"<.7.O.} } 3.7.B.% w 7.}  .[  .I I < 7 b I c c [ 2 J Z l L L L P { X.$.B j ' | '  . .I h ' |  .' ' ' } % #.}  . .#.}  .J 7 & L L ",
"O.<.<.} } 7.<.&X% 7 7...I I W W I }.U I I O.c c & J J Z P L L L { { O.X.X.' | [  . . .0.'  .] ' m ' *.=  . . . . .[ J c = & P Q ",
"<.3.3.3.<.<.3.P.< 2 *X[ [ [ W i I I I I I I I J ; Q X.j.U U J P { X.7.e.e.m +X&.&...' '  . . .' ' m *.% 3 [ W U  .I P c & & L { ",
"O.O.2.4.4.<.O.<.3.2  .[ [ [ W ' J I I I W W I { 4 Q X.X.^ L L U { X.c.e.U b -.&.&. .' ' ' {  . . . .*.& ; I n n I I c M & ; c P ",
"P Q <.<.4.<.O.<.% & /. . .{ W W I  . .I W { } q.4 Q X.X.^ U U U @.*.7.6 R., -.D.S.-.*. . .[  . . .| #.& 3 n I I f [.M M & c J J ",
"c L O.3.3.<.O.O.% & #.#.#. . . ... .} #.*.6.q.Y.4 Q X.X.Q U 3 d #.#.e.@XX.* 5.D.J.S.D.-.&... . .d ' I & g  .I I I I M M & z z z ",
"c L Q O.<.O.O.<.2 % b *.*. . .#...*.6.7.H.q.q.Y.2 Q X.Q ^ U L XXX.X.#.#.#., 0.Y.^.Y.D.-.&.&. .[  .' g & I b  .{ } { ' M 7 z z z ",
"c c L Q J s Q O.w & b  . . .} #.6.6.e.T.T.t.L.Y.= L { Q W L L Z Q Q #.#.P.m  .D.J.G.| -.&.&... . .M n = 3 s } [  . . .M 3 g i i ",
"i i f c 0 J Q Q a & Q c [  .I { #.t.t.t.t.L., Y.X V V V V V V V Q Q #.#.z.i f 0.J.D.J.-.&.#.' n n n 2 i I g I I I  ...W 3 i i a ",
"X X X % 2 i 2 X = % % X X X X X ; 6 % - - X X X X O , % X X X X X % X X 4 * * = & X # , X , X * 1 2 & 3 & X X X X X X X X . . . ",
"& w b O.L.;Xa ; > r 8 > 7 & % O X % 7 4 e e 9 8 4 = X 4 4 7 N A 3 X % = 4 Y / / G G & X X * K q q C 2 ; q q 4 q B S 9 9 : & % . ",
"J W W 9.7.7.].F./.R.6.L.|.7.Q V > X P.O.P 9 e e A./ j J J b g c Q P & & & XX .J c G G 8 > a %XX.X.$.s.+.+.Y C C C Y C Y ~ s.& w ",
"i E.W 2.2.7.e.7. ..... ...{ [ O.> X A A A > N e ~.~ V I J n g g g g a 7 & q. .I c L G C 7 6.6.X.X.X.$.s.s.:.y.y.>./ C C C #X8 ; ",
"z J L } #.7.q.7.7... . ...[ I I.z % Y Y Y C C B e 1.X.} I b b g g g 9.2 c F.*.I L a 7.G 8 J X.X.X.O.s.k.s.s.f.g.i.` / ) ) Y r 2 ",
"z J W } #.7.L.7.7.7...#...[ [  .Z % 7 ~ / G C G B j 7 } [ M b g W [ $.& 7.F.*.I I c a Z A s R ^ X.$.$.s.s.d.x.x.x.d.) / / t & 4 ",
"z J  .#.7.L.J L.7.7.2.7.2...#.7.U % ~ ~ ~ ~ Y Y B B * } [ I b b I b 9.& F.F.I [ I J a V P 7 X.^ g E.$.$.f.f.x.x.f.g.` / / B B 7 ",
"z J ..2.e.L.L.e.e.e.7.7.6...*.e.2 % ~ ~ ~ ~ Y Y G B 1 [ [ I J J b b b.& ../.%X[  .I z L 2 & $.$.~.$.$.+.:.f.f.n.x.i.` ) Y C B w ",
"o f 6.7.e.L.t.9.7.7.2.2.2...6./.A % G Y ! Y G G B B * W I I n M b J L.& ../.w.@.} ] O.W W * U.$.X.^ U ( ^ +.s./ Y / ` ` Y C C ; ",
".X' 2.7.7.8.e.oX6.2.2.2...6.6./.q % C F G C G B B C X I I I M b b J W & J *.q.#.#.L.2.2.W X }.g o L J U U U ^ +.+.) / / / C r % ",
"..2.2.7...2.7.e.2.2.2.2.#.e.Y.L.K.. C C V C C C A ( X n J M n b & 5 J ; I { 7.#.2.2.2.2.#.X X X X X X O X . . . . % q N Y C C % ",
"b L * Q { Q } 7.#.#.#.#.6.7.F.L.4 % C C C C Y B A K X ; f f f 6 * X X X X X X X X X X X X + & & & 2 X O X = . . . . . . . . O X ",
"2 4 * O O O O O O O O & i #.q.K.& . . O O O O O O X & X X X X % % = q 8 ; X % X * X.3.C N s ..^ ^ = z 3.B.L s ; = = > = r q r r ",
"e.R.P.O q X.^ K _ G m.T k F 8 8 r Y y > 7 I W I b n P.^ b c = 8 C E Y.Y...P O.P * #.[ [ #.#.0.{  .7 = M.v.7.2.<.O.O.X b c c ..7.",
"..*.:Xw =.=.X.C l l K K K V R F k k G T 4 g W I a b J c c b q = {.I W ....b b J * [ [ [ I  .0.....7.= v.v.7.z.6.^ Q = #.L L ] *.",
"....0.=Xi v.$.P K K Y K P.Y F F F k F F 2 { W I L L b P b v V = I I I [ 6.i J O.* [ [ [ I } ..#.#.I & B.B.M.B.z.P P = J L I I  .",
"..0.0./.3 v.7.R K K T T T G F Y Y B G G 2 W { W L L L n L W L = 0 I I [ ..L.} I * [ [ [ [ ....#...} & 3.B.B.Q O.P O.= J L I I  .",
"..0.q.Y.= 7.O.X.U K Y T Y F F G ~ F G Y 2 V } W } } Q W } e.O.= a #.#.[ ......6.% 2 2.[ [ { ......[ & $XB.B. XO.P s = J L L L ] ",
"..0.6./.= ^ X.l U V p / / T T T ) Y % % % } O.#.#.} { 2.6.M.2 = [ [ [ { ....#.6.% 2 ..#. ...#.6.6.[ & Q 3.z.M.O.P l.= L L L }  .",
"..0.e./.< ^ $.j.W.#./ / / T g.T ~ ` G > % P #.2.6.6.2.7.2.t.7 = g ............6.% 2 ..*.....6.7.,.W & P Q O.7.Q V s.= X.L I I  .",
"..e.e.(.2 ^ ^ ^ X.o./ Y o./ ` ` ` T G ) % 7 O.#.6.6.6.e.} } 7 ; 0 { ..[ [ ..7.L.% & J [  ...[ ..I P % V Q O.O.E P O.K I I I I  .",
", % J % % L X.^ ^ o.A l ! / ` ` ` :.G G = X X * , X 2 e.X - w 2 X X I [ [ [ ..V % X X 6 6 6 X X X , X P P P ^ P E s U I I I I i ",
"% % % s = X X X X X X X X X X X X X X X % X X X . . X X X X X = X X X [ 9.0 b b X X % % = 7 q j B q X O X X X X X X X X X % % X ",
"X.{ { V s s w q 4 4 4 4 ; . = 2 J e +.b.! 8 > O ; V P ^ O.3.N r ; % X 6 5 w X X j ^ 1.3.2 Z.>./ G F G H F % s [ I b b b I [  . .",
"..{ { U V s s q q s s l C = X c Z Q <.M.O.B 8 X ; v.L.L.L.L.9.O.^ B X X & 2 <.!.H._...t.; V.>.u./ Y Y F F & { Q I b I  ...#.#.#.",
"} [ U J V V s q e j B j B = Q W I } 3.z.V D 8 & & a } W L M Q W V Y 9 i W I I I } ......; p.d.>./ / G j N & {  .6 I  . . .6.#.#.",
"{ U U J J V j j j C C C C = 3.Q Q * <.z.4 4 ; 2 }..XW { P c W W J c 7 & W W } } 6.6...6.- d.d.>.;.` Y F r & { {  .W I #.#.6.6.#.",
"O.U J J V j j j C G C C H = 3.Q Q z.<.<.s 4 ; 8 v.W L L L J n W c c 2 ..W W } ........6.= d.>.>.u.i.) ! F & I I I I I  .#.6.#.#.",
"#.U Z V V A j F C Y G r H = O.Q Q <.O.O.! = ; K.N.#.{ { { I { W c c & } M L } ..8.x 2.].X d.` ` ` ) / / Y = I I I I W #.6.q.q.6.",
"I V V V V C j G ~ ~ ~ G ~ = O.Q { 2.2.O.N % ; '.N.#.#.#.6.{ { } c c z ..n W } 6.8.8.H.[.X ` ` ` ~ ) Y Y 7 & I I J I [ [ *.q.q...",
"I J V V V V C A G G ~ G G = O.Q z P 2.O.A % ; @X).7.7.7.7.} I W J P O.b b W } 8...2.w.w.X C T ~ Y Y Y Y q & { { I b - [ ..q.[ [ ",
"V V s s s s C C G F G G G . . z z = b 0 & < ; e.N.N.N.2.#.#.{ { { W <.X % X X X @ X X X X X X X X X X X 7 & 6 , 3 X X # X , 3 M ",
"% X X X X X X X X X X % & X % % . . . . X % % % % % % % % % ; % O O & = f f b b L z z { ^ ^ z.4 X & ; ; 7 ; = X X X X X X X X X ",
"b b b b X Q Q `.4 % X ; O.P ^ ^ J a a 7 X.+.O.Q s s V ^ z / u.C.a.% 0 i u 6 $ x b b b b f M v.& r W W W oX.XR.R.O.0 f f I c c b ",
"c c b b X J Q b.B.O.B X c V s V i 7 7 s =.L Q Q z z 7 q 7 7 e e B G I z M u +XW { I J b b I O.X 2 ..L.t.7.q.7.L.-X0 i f c g , b ",
"g g g g X L Q Q Q Q ^ 7 R.V g a 7 i i i V L I U W L g = w 7 7 N u.N Q M W %.%.} X.W I I J b I X 2 ..W  .} ..} I !.2 g f g S.' b ",
"a g a g X J Q O.3.O.^ w U V V a s i a a g L I U V P E w 7 7 7 7 7 e Q Q O.O.6.{ O.O.{ ..W { 3.X 2 Q W I L P L v w ; c f f a d i ",
"0 i a g O Q O.O.3.O.J = J a s s i a V s J V V V V J V a 7 7 7 q 7 = Q 6.6.O.{ O.O.2.2...O.3.z.X X { Q L c c c c c 6 c c f i i i ",
"0 0 a g X Q Q 9.9.3.O.= J c a a i s V a z V Z J Z J P z 7 7 w w e & Q 2.7.O.2.{ O.O.O.} } z.z.X ; { W L c c c c c % c c g i i 0 ",
"0 0 a a X V O.<.3.l.3.= J L L c g V 4 a J g L P P P L a e e s V V s Q #.L.6.2.2.O.} ..{ Q O.z.X 2 Q P P L P 0 f z & I I c i 6 6 ",
"0 0 i i X Q I f 9.9.3.. P P P J J g g g g J E E E L V a s V Z Z E E } O.2.q.q.O.{ W { W Q Q 3.X X P P P P c c 1 c ; , I c i 0 6 ",
"0 0 0 0 X X X X f w 7 . U P J z a a w w g J J L L V V V V V Z E O.V O.O.2.O.O.#.O.W W Q Q { O.X X P P P P c x X & & X @ & % @ = ",
"X X X X ; = & & > ! / ~ . . . . . . . . . . . . . . . . . . X X X . . X X X X X X X X X O X X X X * X X X X X X X X X X X X X X ",
"& ; 7 V V V V ! ~ ~ ~ ! . . q q e 7 & . . = a P s.+.X.P V V V e s V ....Q V V L { % X = > j C V 7 ; 7 w E N s.N 7 = r r B P ;.B "
};
